<svg xmlns="http://www.w3.org/2000/svg" xmlns:xlink="http://www.w3.org/1999/xlink" width="500" zoomAndPan="magnify" viewBox="0 0 375 374.999991" height="500" preserveAspectRatio="xMidYMid meet" version="1.0"><defs><g/><clipPath id="cadc74ce20"><path d="M 110.621094 82 L 264 82 L 264 204 L 110.621094 204 Z M 110.621094 82 " clip-rule="nonzero"/></clipPath><clipPath id="25c3acd13a"><path d="M 88.359375 183.855469 L 102 183.855469 L 102 197.894531 L 88.359375 197.894531 Z M 88.359375 183.855469 " clip-rule="nonzero"/></clipPath><clipPath id="0e8a4e834f"><path d="M 101.996094 188.808594 C 102.003906 193.167969 101.496094 194.285156 100.835938 195.128906 C 100.171875 195.976562 99.203125 196.738281 98.226562 197.175781 C 97.25 197.613281 96.042969 197.835938 94.976562 197.773438 C 93.90625 197.714844 92.722656 197.335938 91.808594 196.78125 C 90.894531 196.230469 90.023438 195.359375 89.472656 194.445312 C 88.917969 193.53125 88.558594 192.355469 88.488281 191.285156 C 88.417969 190.21875 88.640625 189.003906 89.078125 188.027344 C 89.519531 187.050781 90.277344 186.082031 91.125 185.421875 C 91.96875 184.757812 93.09375 184.25 94.144531 184.058594 C 95.199219 183.867188 96.429688 183.945312 97.453125 184.257812 C 98.472656 184.574219 100.289062 185.972656 100.289062 185.972656 " clip-rule="nonzero"/></clipPath><clipPath id="38d78ba9b7"><path d="M 96.003906 134.53125 L 109.660156 134.53125 L 109.660156 148.578125 L 96.003906 148.578125 Z M 96.003906 134.53125 " clip-rule="nonzero"/></clipPath><clipPath id="19e6b8c44e"><path d="M 109.644531 139.484375 C 109.652344 143.84375 109.144531 144.96875 108.484375 145.8125 C 107.820312 146.660156 106.855469 147.414062 105.878906 147.851562 C 104.902344 148.289062 103.6875 148.511719 102.617188 148.449219 C 101.550781 148.386719 100.371094 148.019531 99.457031 147.464844 C 98.542969 146.914062 97.667969 146.035156 97.113281 145.121094 C 96.558594 144.207031 96.191406 143.03125 96.128906 141.960938 C 96.066406 140.894531 96.289062 139.679688 96.730469 138.703125 C 97.167969 137.726562 97.921875 136.757812 98.765625 136.097656 C 99.613281 135.433594 100.734375 134.925781 101.789062 134.734375 C 102.839844 134.542969 104.070312 134.621094 105.09375 134.933594 C 106.117188 135.25 107.929688 136.648438 107.929688 136.648438 " clip-rule="nonzero"/></clipPath><clipPath id="53f03c5923"><path d="M 118.441406 94.777344 L 132.101562 94.777344 L 132.101562 108.824219 L 118.441406 108.824219 Z M 118.441406 94.777344 " clip-rule="nonzero"/></clipPath><clipPath id="d9599dd3c4"><path d="M 132.085938 99.734375 C 132.09375 104.09375 131.585938 105.207031 130.925781 106.050781 C 130.261719 106.898438 129.292969 107.660156 128.316406 108.097656 C 127.339844 108.535156 126.125 108.757812 125.058594 108.695312 C 123.988281 108.636719 122.8125 108.265625 121.898438 107.710938 C 120.984375 107.160156 120.113281 106.28125 119.5625 105.367188 C 119.007812 104.453125 118.640625 103.277344 118.570312 102.207031 C 118.5 101.140625 118.730469 99.925781 119.167969 98.949219 C 119.609375 97.972656 120.367188 97.003906 121.214844 96.34375 C 122.058594 95.679688 123.183594 95.175781 124.234375 94.980469 C 125.289062 94.789062 126.519531 94.859375 127.542969 95.183594 C 128.5625 95.503906 130.371094 96.894531 130.371094 96.894531 " clip-rule="nonzero"/></clipPath><clipPath id="9dd675646c"><path d="M 161.664062 66.15625 L 175.316406 66.15625 L 175.316406 80.195312 L 161.664062 80.195312 Z M 161.664062 66.15625 " clip-rule="nonzero"/></clipPath><clipPath id="da05e5c701"><path d="M 175.308594 71.105469 C 175.316406 75.460938 174.808594 76.585938 174.148438 77.429688 C 173.484375 78.277344 172.515625 79.039062 171.539062 79.476562 C 170.5625 79.914062 169.351562 80.136719 168.28125 80.066406 C 167.210938 80 166.035156 79.636719 165.121094 79.082031 C 164.207031 78.53125 163.332031 77.660156 162.777344 76.746094 C 162.222656 75.832031 161.855469 74.648438 161.792969 73.578125 C 161.730469 72.511719 161.953125 71.304688 162.390625 70.328125 C 162.832031 69.351562 163.589844 68.375 164.4375 67.714844 C 165.28125 67.050781 166.40625 66.550781 167.457031 66.359375 C 168.511719 66.167969 169.742188 66.238281 170.765625 66.558594 C 171.785156 66.882812 173.59375 68.273438 173.59375 68.273438 " clip-rule="nonzero"/></clipPath><clipPath id="4f18a035dd"><path d="M 221.320312 75.042969 L 234.976562 75.042969 L 234.976562 89 L 221.320312 89 Z M 221.320312 75.042969 " clip-rule="nonzero"/></clipPath><clipPath id="48f375d806"><path d="M 234.960938 80 C 234.96875 84.359375 234.460938 85.480469 233.800781 86.324219 C 233.140625 87.171875 232.171875 87.925781 231.195312 88.363281 C 230.21875 88.800781 229.003906 89.023438 227.933594 88.960938 C 226.867188 88.902344 225.691406 88.53125 224.777344 87.976562 C 223.859375 87.425781 222.992188 86.546875 222.4375 85.632812 C 221.886719 84.71875 221.515625 83.542969 221.445312 82.472656 C 221.378906 81.40625 221.609375 80.191406 222.046875 79.214844 C 222.484375 78.238281 223.246094 77.269531 224.089844 76.609375 C 224.9375 75.945312 226.058594 75.441406 227.113281 75.246094 C 228.164062 75.054688 229.394531 75.125 230.417969 75.449219 C 231.441406 75.769531 233.246094 77.160156 233.246094 77.160156 " clip-rule="nonzero"/></clipPath><clipPath id="5b9fd73689"><path d="M 257.015625 114.644531 L 270.671875 114.644531 L 270.671875 128.6875 L 257.015625 128.6875 Z M 257.015625 114.644531 " clip-rule="nonzero"/></clipPath><clipPath id="a6877c8668"><path d="M 270.65625 119.589844 C 270.664062 123.949219 270.15625 125.070312 269.496094 125.917969 C 268.832031 126.761719 267.867188 127.523438 266.890625 127.960938 C 265.914062 128.402344 264.699219 128.632812 263.628906 128.5625 C 262.5625 128.492188 261.382812 128.125 260.46875 127.570312 C 259.554688 127.015625 258.679688 126.148438 258.125 125.234375 C 257.570312 124.316406 257.203125 123.132812 257.140625 122.066406 C 257.078125 120.996094 257.300781 119.789062 257.742188 118.8125 C 258.179688 117.835938 258.941406 116.867188 259.785156 116.207031 C 260.632812 115.546875 261.753906 115.039062 262.808594 114.847656 C 263.859375 114.65625 265.089844 114.722656 266.113281 115.046875 C 267.136719 115.371094 268.941406 116.761719 268.941406 116.761719 " clip-rule="nonzero"/></clipPath><clipPath id="89e955c717"><path d="M 268.429688 166.242188 L 282.082031 166.242188 L 282.082031 180.28125 L 268.429688 180.28125 Z M 268.429688 166.242188 " clip-rule="nonzero"/></clipPath><clipPath id="40053a8b21"><path d="M 282.070312 171.191406 C 282.078125 175.550781 281.574219 176.671875 280.910156 177.515625 C 280.25 178.363281 279.28125 179.125 278.304688 179.5625 C 277.328125 180 276.113281 180.222656 275.046875 180.152344 C 273.976562 180.085938 272.800781 179.722656 271.886719 179.171875 C 270.972656 178.617188 270.101562 177.746094 269.550781 176.832031 C 268.996094 175.917969 268.617188 174.734375 268.558594 173.664062 C 268.496094 172.597656 268.71875 171.390625 269.15625 170.414062 C 269.59375 169.4375 270.355469 168.460938 271.203125 167.800781 C 272.046875 167.140625 273.167969 166.640625 274.222656 166.445312 C 275.277344 166.253906 276.507812 166.324219 277.527344 166.648438 C 278.550781 166.96875 280.359375 168.359375 280.359375 168.359375 " clip-rule="nonzero"/></clipPath><clipPath id="ad0aaf6b67"><path d="M 90.667969 159.191406 L 104.320312 159.191406 L 104.320312 173.230469 L 90.667969 173.230469 Z M 90.667969 159.191406 " clip-rule="nonzero"/></clipPath><clipPath id="40628a015d"><path d="M 104.300781 164.148438 C 104.308594 168.507812 103.800781 169.621094 103.140625 170.46875 C 102.480469 171.3125 101.511719 172.074219 100.535156 172.511719 C 99.558594 172.949219 98.351562 173.171875 97.28125 173.113281 C 96.214844 173.050781 95.03125 172.675781 94.113281 172.121094 C 93.199219 171.566406 92.332031 170.699219 91.777344 169.785156 C 91.222656 168.867188 90.863281 167.691406 90.792969 166.625 C 90.726562 165.554688 90.949219 164.339844 91.386719 163.363281 C 91.824219 162.386719 92.585938 161.417969 93.429688 160.757812 C 94.277344 160.097656 95.398438 159.589844 96.453125 159.398438 C 97.503906 159.207031 98.734375 159.28125 99.757812 159.597656 C 100.78125 159.914062 102.59375 161.3125 102.59375 161.3125 " clip-rule="nonzero"/></clipPath><clipPath id="423d8d376e"><path d="M 103.652344 116.726562 L 117.308594 116.726562 L 117.308594 130.773438 L 103.652344 130.773438 Z M 103.652344 116.726562 " clip-rule="nonzero"/></clipPath><clipPath id="c144489d19"><path d="M 117.292969 121.679688 C 117.300781 126.039062 116.792969 127.164062 116.132812 128.007812 C 115.472656 128.855469 114.503906 129.605469 113.527344 130.046875 C 112.550781 130.484375 111.335938 130.707031 110.265625 130.644531 C 109.199219 130.582031 108.023438 130.214844 107.105469 129.660156 C 106.191406 129.109375 105.316406 128.230469 104.761719 127.316406 C 104.210938 126.402344 103.839844 125.226562 103.777344 124.15625 C 103.71875 123.089844 103.941406 121.875 104.378906 120.898438 C 104.816406 119.921875 105.578125 118.953125 106.421875 118.292969 C 107.269531 117.628906 108.382812 117.121094 109.4375 116.929688 C 110.488281 116.738281 111.71875 116.816406 112.742188 117.128906 C 113.765625 117.445312 115.578125 118.84375 115.578125 118.84375 " clip-rule="nonzero"/></clipPath><clipPath id="c6f2282ba1"><path d="M 137.570312 78.855469 L 151.222656 78.855469 L 151.222656 92.894531 L 137.570312 92.894531 Z M 137.570312 78.855469 " clip-rule="nonzero"/></clipPath><clipPath id="19fb1cd751"><path d="M 151.203125 83.8125 C 151.210938 88.171875 150.710938 89.285156 150.050781 90.132812 C 149.390625 90.976562 148.414062 91.738281 147.4375 92.175781 C 146.460938 92.613281 145.253906 92.835938 144.183594 92.777344 C 143.117188 92.714844 141.933594 92.34375 141.019531 91.792969 C 140.101562 91.238281 139.234375 90.363281 138.679688 89.445312 C 138.128906 88.53125 137.765625 87.355469 137.695312 86.285156 C 137.628906 85.21875 137.851562 84.003906 138.289062 83.027344 C 138.726562 82.050781 139.488281 81.082031 140.332031 80.421875 C 141.179688 79.761719 142.300781 79.253906 143.355469 79.0625 C 144.40625 78.867188 145.636719 78.945312 146.660156 79.261719 C 147.683594 79.574219 149.496094 80.976562 149.496094 80.976562 " clip-rule="nonzero"/></clipPath><clipPath id="0db9f065ae"><path d="M 190.484375 65.109375 L 204.136719 65.109375 L 204.136719 79.148438 L 190.484375 79.148438 Z M 190.484375 65.109375 " clip-rule="nonzero"/></clipPath><clipPath id="0926356af5"><path d="M 204.117188 70.066406 C 204.125 74.425781 203.617188 75.546875 202.957031 76.394531 C 202.296875 77.238281 201.328125 77.992188 200.351562 78.429688 C 199.375 78.867188 198.167969 79.089844 197.101562 79.03125 C 196.03125 78.96875 194.847656 78.597656 193.933594 78.046875 C 193.015625 77.492188 192.148438 76.617188 191.59375 75.699219 C 191.042969 74.785156 190.679688 73.609375 190.609375 72.542969 C 190.542969 71.472656 190.765625 70.257812 191.203125 69.28125 C 191.640625 68.304688 192.402344 67.335938 193.25 66.675781 C 194.09375 66.015625 195.214844 65.507812 196.269531 65.316406 C 197.324219 65.121094 198.550781 65.199219 199.574219 65.523438 C 200.597656 65.84375 202.410156 67.230469 202.410156 67.230469 " clip-rule="nonzero"/></clipPath><clipPath id="abcaab7be9"><path d="M 241.183594 92.34375 L 254.835938 92.34375 L 254.835938 106.382812 L 241.183594 106.382812 Z M 241.183594 92.34375 " clip-rule="nonzero"/></clipPath><clipPath id="4cb8412efb"><path d="M 254.828125 97.292969 C 254.835938 101.652344 254.328125 102.773438 253.664062 103.621094 C 253.003906 104.464844 252.035156 105.226562 251.058594 105.664062 C 250.082031 106.101562 248.867188 106.328125 247.800781 106.257812 C 246.730469 106.1875 245.554688 105.828125 244.640625 105.273438 C 243.726562 104.71875 242.847656 103.851562 242.296875 102.9375 C 241.742188 102.019531 241.375 100.835938 241.3125 99.769531 C 241.25 98.699219 241.472656 97.492188 241.910156 96.515625 C 242.351562 95.539062 243.109375 94.570312 243.957031 93.910156 C 244.800781 93.25 245.925781 92.742188 246.976562 92.550781 C 248.03125 92.359375 249.261719 92.425781 250.285156 92.75 C 251.304688 93.074219 253.113281 94.464844 253.113281 94.464844 " clip-rule="nonzero"/></clipPath><clipPath id="82964d1add"><path d="M 264.550781 138.6875 L 278.203125 138.6875 L 278.203125 152.730469 L 264.550781 152.730469 Z M 264.550781 138.6875 " clip-rule="nonzero"/></clipPath><clipPath id="998943eca7"><path d="M 278.183594 143.636719 C 278.191406 147.996094 277.683594 149.117188 277.023438 149.964844 C 276.363281 150.808594 275.394531 151.570312 274.417969 152.007812 C 273.441406 152.449219 272.226562 152.679688 271.15625 152.609375 C 270.089844 152.539062 268.914062 152.171875 268 151.617188 C 267.082031 151.0625 266.214844 150.195312 265.660156 149.28125 C 265.109375 148.367188 264.738281 147.179688 264.675781 146.113281 C 264.617188 145.042969 264.832031 143.835938 265.269531 142.859375 C 265.707031 141.882812 266.46875 140.917969 267.3125 140.253906 C 268.160156 139.59375 269.28125 139.085938 270.335938 138.894531 C 271.390625 138.703125 272.617188 138.769531 273.640625 139.09375 C 274.664062 139.417969 276.46875 140.808594 276.46875 140.808594 " clip-rule="nonzero"/></clipPath><clipPath id="d789788371"><path d="M 270.023438 193.789062 L 283.679688 193.789062 L 283.679688 207.832031 L 270.023438 207.832031 Z M 270.023438 193.789062 " clip-rule="nonzero"/></clipPath><clipPath id="779b20cd6b"><path d="M 283.664062 198.734375 C 283.671875 203.09375 283.164062 204.214844 282.503906 205.0625 C 281.839844 205.90625 280.871094 206.667969 279.898438 207.105469 C 278.921875 207.546875 277.707031 207.777344 276.636719 207.707031 C 275.566406 207.636719 274.390625 207.269531 273.476562 206.714844 C 272.5625 206.160156 271.6875 205.292969 271.132812 204.378906 C 270.578125 203.464844 270.210938 202.28125 270.148438 201.210938 C 270.085938 200.140625 270.308594 198.933594 270.75 197.957031 C 271.1875 196.984375 271.949219 196.015625 272.792969 195.351562 C 273.640625 194.691406 274.753906 194.183594 275.804688 193.992188 C 276.859375 193.800781 278.089844 193.875 279.113281 194.191406 C 280.136719 194.507812 281.949219 195.90625 281.949219 195.90625 " clip-rule="nonzero"/></clipPath><clipPath id="9191049fea"><path d="M 178.582031 167 L 199.582031 167 L 199.582031 186 L 178.582031 186 Z M 178.582031 167 " clip-rule="nonzero"/></clipPath><clipPath id="360b730373"><path d="M 178.582031 167 L 191 167 L 191 186 L 178.582031 186 Z M 178.582031 167 " clip-rule="nonzero"/></clipPath><clipPath id="81bcd78171"><path d="M 117 146.492188 L 132.125 146.492188 L 132.125 159.992188 L 117 159.992188 Z M 117 146.492188 " clip-rule="nonzero"/></clipPath><clipPath id="c8debde026"><path d="M 190 135.820312 L 205.015625 135.820312 L 205.015625 149.320312 L 190 149.320312 Z M 190 135.820312 " clip-rule="nonzero"/></clipPath><clipPath id="07f3cc2d24"><path d="M 246 155.679688 L 261.574219 155.679688 L 261.574219 169 L 246 169 Z M 246 155.679688 " clip-rule="nonzero"/></clipPath></defs><rect x="-37.5" width="450" fill="#ffffff" y="-37.499999" height="449.999989" fill-opacity="1"/><rect x="-37.5" width="450" fill="#f6f6f5" y="-37.499999" height="449.999989" fill-opacity="1"/><g clip-path="url(#cadc74ce20)"><path fill="#e86035" d="M 187.761719 82.609375 C 142.265625 85.632812 113.980469 133.699219 111.214844 180.113281 C 110.628906 189.988281 111 197.140625 112.226562 199.625 C 114.363281 203.925781 119.648438 205.242188 123.679688 202.472656 C 128.9375 198.867188 125.238281 184.492188 128.34375 167.511719 C 141.578125 95.109375 206.851562 73.230469 236.828125 129.980469 C 246.324219 147.957031 249.605469 171.847656 246.949219 191.839844 C 246.246094 197.101562 246.699219 199.1875 249.003906 201.324219 C 252.839844 204.871094 258.394531 204.0625 260.894531 199.601562 C 264.382812 193.363281 263.359375 168.257812 262.71875 163.027344 C 255.78125 106.617188 218.804688 80.542969 187.761719 82.609375 Z M 187.761719 82.609375 " fill-opacity="1" fill-rule="nonzero"/></g><path fill="#1c799b" d="M 188.15625 112.269531 C 148.523438 115.449219 134.792969 155.167969 133.707031 193.578125 C 133.585938 197.851562 134.441406 199.484375 136.84375 199.578125 C 143.351562 199.832031 138.125 191.363281 145.800781 161.609375 C 158.378906 112.863281 208.621094 103.96875 225.089844 148.210938 C 225.535156 149.40625 226.878906 154.210938 228.058594 158.855469 C 235.472656 187.835938 231.535156 196.625 234.015625 199.628906 C 235.980469 202.007812 239.785156 200.832031 240.503906 197.617188 C 241.816406 191.761719 239.410156 145.484375 218.964844 124.574219 C 212.640625 118.089844 208.074219 115.398438 200.238281 113.527344 C 196.722656 112.691406 190.679688 112.058594 188.144531 112.261719 Z M 188.15625 112.269531 " fill-opacity="1" fill-rule="nonzero"/><path fill="#dd9c39" d="M 183.070312 128.957031 C 152.757812 135.890625 148.171875 184.585938 153.558594 195.113281 C 156.839844 201.527344 166.738281 202.132812 170.8125 196.164062 C 172.230469 194.089844 171.984375 190.652344 172.085938 188.28125 C 172.292969 183.527344 172.328125 178.777344 172.816406 174.042969 C 173.757812 164.925781 176.378906 151.582031 186.914062 148.898438 C 199.136719 145.78125 202.289062 164.914062 202.945312 173.167969 C 203.335938 178.050781 203.210938 182.945312 203.144531 187.835938 C 203.105469 190.414062 202.53125 194.152344 203.816406 196.535156 C 207.113281 202.65625 217.125 203.6875 221.453125 196.554688 C 222.539062 194.765625 222.832031 193.453125 223.230469 188.625 C 226.445312 149.808594 205.753906 123.773438 183.070312 128.957031 Z M 183.070312 128.957031 " fill-opacity="1" fill-rule="nonzero"/><g clip-path="url(#25c3acd13a)"><g clip-path="url(#0e8a4e834f)"><path fill="#dd9c39" d="M 85.414062 180.984375 L 105.269531 180.984375 L 105.269531 200.84375 L 85.414062 200.84375 Z M 85.414062 180.984375 " fill-opacity="1" fill-rule="nonzero"/></g></g><g clip-path="url(#38d78ba9b7)"><g clip-path="url(#19e6b8c44e)"><path fill="#dd9c39" d="M 93.054688 131.660156 L 112.917969 131.660156 L 112.917969 151.523438 L 93.054688 151.523438 Z M 93.054688 131.660156 " fill-opacity="1" fill-rule="nonzero"/></g></g><g clip-path="url(#53f03c5923)"><g clip-path="url(#d9599dd3c4)"><path fill="#dd9c39" d="M 115.496094 91.90625 L 135.359375 91.90625 L 135.359375 111.773438 L 115.496094 111.773438 Z M 115.496094 91.90625 " fill-opacity="1" fill-rule="nonzero"/></g></g><g clip-path="url(#9dd675646c)"><g clip-path="url(#da05e5c701)"><path fill="#dd9c39" d="M 158.71875 63.285156 L 178.574219 63.285156 L 178.574219 83.144531 L 158.71875 83.144531 Z M 158.71875 63.285156 " fill-opacity="1" fill-rule="nonzero"/></g></g><g clip-path="url(#4f18a035dd)"><g clip-path="url(#48f375d806)"><path fill="#dd9c39" d="M 218.371094 72.171875 L 238.238281 72.171875 L 238.238281 92.039062 L 218.371094 92.039062 Z M 218.371094 72.171875 " fill-opacity="1" fill-rule="nonzero"/></g></g><g clip-path="url(#5b9fd73689)"><g clip-path="url(#a6877c8668)"><path fill="#dd9c39" d="M 254.066406 111.773438 L 273.929688 111.773438 L 273.929688 131.636719 L 254.066406 131.636719 Z M 254.066406 111.773438 " fill-opacity="1" fill-rule="nonzero"/></g></g><g clip-path="url(#89e955c717)"><g clip-path="url(#40053a8b21)"><path fill="#dd9c39" d="M 265.480469 163.371094 L 285.339844 163.371094 L 285.339844 183.230469 L 265.480469 183.230469 Z M 265.480469 163.371094 " fill-opacity="1" fill-rule="nonzero"/></g></g><g clip-path="url(#ad0aaf6b67)"><g clip-path="url(#40628a015d)"><path fill="#e69677" d="M 87.71875 156.320312 L 107.578125 156.320312 L 107.578125 176.179688 L 87.71875 176.179688 Z M 87.71875 156.320312 " fill-opacity="1" fill-rule="nonzero"/></g></g><g clip-path="url(#423d8d376e)"><g clip-path="url(#c144489d19)"><path fill="#e69677" d="M 100.703125 113.855469 L 120.570312 113.855469 L 120.570312 133.71875 L 100.703125 133.71875 Z M 100.703125 113.855469 " fill-opacity="1" fill-rule="nonzero"/></g></g><g clip-path="url(#c6f2282ba1)"><g clip-path="url(#19fb1cd751)"><path fill="#e69677" d="M 134.621094 75.984375 L 154.480469 75.984375 L 154.480469 95.84375 L 134.621094 95.84375 Z M 134.621094 75.984375 " fill-opacity="1" fill-rule="nonzero"/></g></g><g clip-path="url(#0db9f065ae)"><g clip-path="url(#0926356af5)"><path fill="#e69677" d="M 187.535156 62.238281 L 207.394531 62.238281 L 207.394531 82.097656 L 187.535156 82.097656 Z M 187.535156 62.238281 " fill-opacity="1" fill-rule="nonzero"/></g></g><g clip-path="url(#abcaab7be9)"><g clip-path="url(#4cb8412efb)"><path fill="#e69677" d="M 238.238281 89.476562 L 258.09375 89.476562 L 258.09375 109.332031 L 238.238281 109.332031 Z M 238.238281 89.476562 " fill-opacity="1" fill-rule="nonzero"/></g></g><g clip-path="url(#82964d1add)"><g clip-path="url(#998943eca7)"><path fill="#e69677" d="M 261.601562 135.820312 L 281.460938 135.820312 L 281.460938 155.675781 L 261.601562 155.675781 Z M 261.601562 135.820312 " fill-opacity="1" fill-rule="nonzero"/></g></g><g clip-path="url(#d789788371)"><g clip-path="url(#779b20cd6b)"><path fill="#e69677" d="M 267.074219 190.917969 L 286.9375 190.917969 L 286.9375 210.78125 L 267.074219 210.78125 Z M 267.074219 190.917969 " fill-opacity="1" fill-rule="nonzero"/></g></g><g clip-path="url(#9191049fea)"><path fill="#e69677" d="M 181.574219 167.734375 C 179.828125 168.640625 178.578125 171.546875 178.949219 173.828125 C 179.324219 176.121094 181.800781 179.476562 186.089844 183.492188 C 189.285156 186.484375 189.039062 186.453125 189.957031 185.1875 C 193.375 180.464844 203.46875 172.378906 197.425781 168.066406 C 196.179688 167.175781 194.027344 167.089844 192.683594 167.878906 C 191.511719 168.566406 190.171875 170.121094 189.328125 171.042969 L 189.101562 170.40625 C 187.5625 166.089844 181.605469 167.734375 181.574219 167.734375 " fill-opacity="1" fill-rule="nonzero"/></g><g clip-path="url(#360b730373)"><path fill="#e87e5d" d="M 186.945312 179.78125 C 185.824219 177.289062 183.183594 174.96875 182.441406 171.023438 C 182.011719 168.765625 183.257812 168.371094 182.644531 167.980469 C 181.46875 167.230469 178.796875 169.535156 178.890625 173.136719 C 179.542969 176.457031 184.453125 182.035156 187.8125 185.101562 C 188.914062 185.589844 190.015625 185.375 190.015625 184.527344 C 190.015625 184.070312 187.664062 181.378906 186.945312 179.78125 " fill-opacity="1" fill-rule="nonzero"/></g><g clip-path="url(#81bcd78171)"><path fill="#e86035" d="M 132.148438 149.238281 C 132.148438 153.515625 125.351562 159.492188 124.585938 159.683594 C 124.359375 159.738281 124.359375 159.738281 122.453125 158.210938 C 119.550781 155.890625 116.371094 152.65625 117.316406 149.054688 C 117.660156 147.726562 118.878906 146.5 120.335938 146.566406 C 121.65625 146.628906 123.734375 147.886719 124.257812 149.554688 L 124.402344 150.007812 C 125.382812 148.980469 126.582031 147.765625 128.277344 147.308594 C 128.832031 147.160156 130.199219 147.105469 130.703125 147.214844 C 131.171875 147.316406 131.691406 147.714844 131.929688 148.152344 C 132.117188 148.5 132.148438 148.644531 132.148438 149.238281 Z M 132.148438 149.238281 " fill-opacity="1" fill-rule="nonzero"/></g><g fill="#1c799b" fill-opacity="1"><g transform="translate(111.955947, 245.423037)"><g><path d="M 19.785156 -8.632812 C 19.199219 -6.820312 17.882812 -5.621094 16.332031 -5.621094 C 16.125 -5.621094 15.921875 -5.648438 15.714844 -5.679688 L 19.785156 -17.707031 C 19.988281 -18.320312 20.136719 -19.082031 20.136719 -19.667969 C 20.136719 -23.386719 16.945312 -25.40625 13.871094 -25.40625 C 12.820312 -25.40625 11.882812 -25.054688 10.917969 -24.378906 C 10.800781 -24.878906 9.773438 -25.460938 8.691406 -25.460938 C 7.726562 -25.460938 6.730469 -24.996094 6.261719 -23.617188 L -1.054688 -2.722656 C -1.199219 -2.339844 -1.257812 -2.019531 -1.257812 -1.699219 C -1.257812 -0.261719 0 0.644531 1.289062 0.644531 C 2.222656 0.644531 3.191406 0.144531 3.6875 -0.9375 C 4.800781 0.117188 6.613281 0.378906 7.40625 0.378906 C 9.628906 0.378906 12.027344 -0.496094 13.753906 -2.339844 C 14.429688 -2.078125 15.160156 -1.933594 16.039062 -1.933594 C 19.492188 -1.933594 22.359375 -4.300781 23.296875 -7.871094 C 23.355469 -8.046875 23.355469 -8.222656 23.355469 -8.398438 C 23.355469 -9.425781 22.507812 -9.949219 21.628906 -9.949219 C 20.839844 -9.949219 20.046875 -9.542969 19.785156 -8.632812 Z M 6.320312 -9.773438 L 9.191406 -17.941406 C 10.183594 -20.488281 11.679688 -21.160156 13.023438 -21.160156 C 14.195312 -21.160156 15.132812 -20.339844 15.132812 -19.054688 C 15.132812 -18.703125 15.042969 -18.320312 14.925781 -17.910156 L 11.734375 -8.488281 C 10.652344 -9.277344 9.394531 -9.890625 7.582031 -9.890625 C 7.140625 -9.890625 6.703125 -9.863281 6.320312 -9.773438 Z M 7.257812 -3.308594 C 6.175781 -3.308594 5.5625 -3.835938 5.5625 -4.507812 C 5.5625 -5.445312 6.527344 -6.203125 7.726562 -6.203125 C 8.75 -6.203125 9.570312 -5.648438 10.332031 -4.945312 C 9.511719 -3.863281 8.28125 -3.308594 7.257812 -3.308594 Z M 7.257812 -3.308594 "/></g></g></g><g fill="#1c799b" fill-opacity="1"><g transform="translate(130.715954, 245.423037)"><g><path d="M 12.378906 -6.117188 C 12.378906 -6.085938 12.378906 -6.554688 12.261719 -7.113281 C 12.46875 -7.257812 12.671875 -7.492188 12.847656 -7.757812 C 13.347656 -8.488281 14.222656 -11.035156 14.222656 -12.203125 C 14.222656 -15.191406 11.765625 -17.179688 8.605469 -17.179688 C 5.855469 -17.179688 3.25 -15.65625 2.3125 -13.054688 L 0.175781 -7.023438 C -0.0859375 -6.292969 -0.203125 -5.5625 -0.203125 -4.917969 C -0.203125 -1.84375 2.429688 0 5.414062 0 C 7.699219 0 9.773438 -0.730469 11.003906 -2.839844 C 11.53125 -2.691406 12.144531 -2.605469 12.761719 -2.605469 C 16.214844 -2.605469 18.9375 -5.0625 19.929688 -8.136719 C 20.019531 -8.457031 20.078125 -8.75 20.078125 -9.015625 C 20.078125 -10.097656 19.289062 -10.710938 18.4375 -10.710938 C 17.648438 -10.710938 16.828125 -10.242188 16.507812 -9.160156 C 15.863281 -7.347656 14.515625 -6.085938 12.789062 -6.085938 C 12.671875 -6.085938 12.496094 -6.085938 12.378906 -6.117188 Z M 9.660156 -10.625 C 9.570312 -10.359375 9.484375 -10.125 9.453125 -9.890625 C 7.84375 -10.066406 6.410156 -8.75 6.410156 -6.996094 C 6.4375 -6 6.9375 -5.472656 7.492188 -5.003906 C 7.113281 -3.980469 6.261719 -3.484375 5.355469 -3.484375 C 4.214844 -3.484375 3.921875 -4.183594 3.921875 -4.886719 C 3.921875 -5.445312 4.066406 -5.96875 4.183594 -6.261719 L 6.261719 -12.203125 C 6.613281 -13.171875 7.640625 -13.726562 8.546875 -13.726562 C 9.453125 -13.726562 10.039062 -13.113281 10.039062 -12.4375 C 10.039062 -11.910156 9.863281 -11.238281 9.660156 -10.625 Z M 9.660156 -10.625 "/></g></g></g><g fill="#1c799b" fill-opacity="1"><g transform="translate(145.993215, 245.423037)"><g/></g></g><g fill="#1c799b" fill-opacity="1"><g transform="translate(157.173126, 245.423037)"><g><path d="M 7.871094 -19.871094 C 9.191406 -19.871094 10.273438 -20.957031 10.273438 -22.300781 C 10.273438 -23.617188 9.191406 -24.671875 7.871094 -24.671875 C 6.554688 -24.671875 5.472656 -23.617188 5.472656 -22.300781 C 5.472656 -20.957031 6.554688 -19.871094 7.871094 -19.871094 Z M 3.921875 -4.945312 L 7.140625 -14.136719 C 7.257812 -14.515625 7.40625 -14.925781 7.40625 -15.21875 C 7.40625 -16.507812 6.4375 -17.179688 5.445312 -17.179688 C 4.535156 -17.179688 3.570312 -16.535156 3.101562 -15.160156 C 2.164062 -12.410156 0.9375 -8.925781 0 -6.203125 C -0.175781 -5.621094 -0.410156 -4.828125 -0.410156 -4.332031 C -0.410156 -1.582031 1.875 0 4.566406 0 C 7.433594 0 10.59375 -1.757812 12.644531 -7.816406 C 12.703125 -7.988281 12.730469 -8.164062 12.730469 -8.339844 C 12.730469 -9.25 11.851562 -9.804688 10.976562 -9.804688 C 10.183594 -9.804688 9.394531 -9.394531 9.042969 -8.488281 C 7.667969 -4.683594 6.117188 -3.484375 4.945312 -3.484375 C 4.273438 -3.484375 3.835938 -3.921875 3.835938 -4.476562 C 3.835938 -4.625 3.863281 -4.769531 3.921875 -4.945312 Z M 3.921875 -4.945312 "/></g></g></g><g fill="#1c799b" fill-opacity="1"><g transform="translate(165.250758, 245.423037)"><g><path d="M 10.449219 -8.253906 C 9.277344 -5.035156 7.433594 -3.484375 5.738281 -3.484375 C 4.683594 -3.484375 4.039062 -4.125 4.039062 -4.917969 C 4.039062 -5.121094 4.097656 -5.355469 4.15625 -5.5625 L 7.023438 -13.726562 L 8.925781 -13.726562 C 10.417969 -13.726562 11.210938 -14.78125 11.210938 -15.746094 C 11.210938 -16.507812 10.710938 -17.179688 9.601562 -17.179688 L 8.28125 -17.179688 L 10.242188 -22.886719 C 10.300781 -23.09375 10.332031 -23.269531 10.332031 -23.445312 C 10.332031 -24.527344 9.570312 -25.40625 8.28125 -25.40625 C 7.316406 -25.40625 6.496094 -24.730469 6.144531 -23.707031 L 3.804688 -17.179688 L 2.574219 -17.179688 C 0.996094 -17.179688 0.320312 -16.183594 0.320312 -15.25 C 0.320312 -14.429688 0.820312 -13.726562 1.609375 -13.726562 L 2.574219 -13.726562 L 0.117188 -6.671875 L 0.117188 -6.703125 C -0.117188 -6 -0.234375 -5.355469 -0.234375 -4.742188 C -0.234375 -1.757812 2.429688 0 5.445312 0 C 9.191406 0 12.320312 -2.78125 13.988281 -7.582031 C 14.046875 -7.785156 14.105469 -7.988281 14.105469 -8.164062 C 14.105469 -9.042969 13.257812 -9.601562 12.351562 -9.601562 C 11.621094 -9.601562 10.800781 -9.191406 10.449219 -8.253906 Z M 10.449219 -8.253906 "/></g></g></g><g fill="#e86035" fill-opacity="1"><g transform="translate(185.106482, 245.423037)"><g><path d="M 5.269531 -6.203125 L 11.035156 -22.097656 C 11.179688 -22.507812 11.238281 -22.886719 11.238281 -23.238281 C 11.238281 -24.644531 10.214844 -25.40625 9.074219 -25.40625 C 7.988281 -25.40625 6.90625 -24.671875 6.378906 -23.179688 L 0.613281 -6.878906 C 0.292969 -6 0.175781 -5.238281 0.175781 -4.507812 C 0.175781 -1.464844 2.546875 0.144531 5.355469 0.144531 L 5.503906 0.144531 C 1.84375 1.113281 -1.082031 2.398438 -1.082031 5.855469 C -1.082031 8.371094 0.964844 10.566406 4.417969 10.566406 C 7.289062 10.566406 10.007812 9.015625 11.238281 5.621094 C 11.648438 4.390625 12.117188 3.101562 12.554688 1.902344 C 16.769531 0.585938 21.042969 -1.699219 23.0625 -7.84375 C 23.152344 -8.105469 23.179688 -8.339844 23.179688 -8.546875 C 23.179688 -9.511719 22.390625 -10.097656 21.539062 -10.097656 C 20.75 -10.097656 19.902344 -9.601562 19.492188 -8.457031 C 18.410156 -5.445312 16.449219 -3.6875 14.136719 -2.515625 L 21.132812 -22.097656 C 21.277344 -22.535156 21.335938 -22.917969 21.335938 -23.269531 C 21.335938 -24.644531 20.3125 -25.40625 19.199219 -25.40625 C 18.085938 -25.40625 17.003906 -24.671875 16.476562 -23.179688 L 11.035156 -7.785156 C 10.007812 -5.355469 7.988281 -3.628906 6.234375 -3.628906 C 5.445312 -3.628906 5.003906 -4.15625 5.003906 -4.945312 C 5.003906 -5.296875 5.09375 -5.707031 5.269531 -6.203125 Z M 7.230469 3.25 L 6.496094 5.238281 C 6.085938 6.320312 5.179688 6.878906 4.332031 6.878906 C 3.628906 6.878906 3.335938 6.46875 3.335938 5.941406 C 3.335938 4.390625 5.355469 3.71875 7.230469 3.25 Z M 7.230469 3.25 "/></g></g></g><g fill="#e86035" fill-opacity="1"><g transform="translate(203.632355, 245.423037)"><g><path d="M 12.378906 -6.117188 C 12.378906 -6.085938 12.378906 -6.554688 12.261719 -7.113281 C 12.46875 -7.257812 12.671875 -7.492188 12.847656 -7.757812 C 13.347656 -8.488281 14.222656 -11.035156 14.222656 -12.203125 C 14.222656 -15.191406 11.765625 -17.179688 8.605469 -17.179688 C 5.855469 -17.179688 3.25 -15.65625 2.3125 -13.054688 L 0.175781 -7.023438 C -0.0859375 -6.292969 -0.203125 -5.5625 -0.203125 -4.917969 C -0.203125 -1.84375 2.429688 0 5.414062 0 C 7.699219 0 9.773438 -0.730469 11.003906 -2.839844 C 11.53125 -2.691406 12.144531 -2.605469 12.761719 -2.605469 C 16.214844 -2.605469 18.9375 -5.0625 19.929688 -8.136719 C 20.019531 -8.457031 20.078125 -8.75 20.078125 -9.015625 C 20.078125 -10.097656 19.289062 -10.710938 18.4375 -10.710938 C 17.648438 -10.710938 16.828125 -10.242188 16.507812 -9.160156 C 15.863281 -7.347656 14.515625 -6.085938 12.789062 -6.085938 C 12.671875 -6.085938 12.496094 -6.085938 12.378906 -6.117188 Z M 9.660156 -10.625 C 9.570312 -10.359375 9.484375 -10.125 9.453125 -9.890625 C 7.84375 -10.066406 6.410156 -8.75 6.410156 -6.996094 C 6.4375 -6 6.9375 -5.472656 7.492188 -5.003906 C 7.113281 -3.980469 6.261719 -3.484375 5.355469 -3.484375 C 4.214844 -3.484375 3.921875 -4.183594 3.921875 -4.886719 C 3.921875 -5.445312 4.066406 -5.96875 4.183594 -6.261719 L 6.261719 -12.203125 C 6.613281 -13.171875 7.640625 -13.726562 8.546875 -13.726562 C 9.453125 -13.726562 10.039062 -13.113281 10.039062 -12.4375 C 10.039062 -11.910156 9.863281 -11.238281 9.660156 -10.625 Z M 9.660156 -10.625 "/></g></g></g><g fill="#e86035" fill-opacity="1"><g transform="translate(218.909616, 245.423037)"><g><path d="M 16.769531 -8.488281 C 15.453125 -4.976562 13.84375 -3.484375 12.496094 -3.484375 C 11.96875 -3.484375 11.621094 -3.777344 11.621094 -4.183594 C 11.621094 -4.300781 11.648438 -4.476562 11.707031 -4.625 L 15.191406 -14.398438 C 15.308594 -14.691406 15.335938 -14.957031 15.335938 -15.21875 C 15.335938 -16.390625 14.3125 -17.179688 13.257812 -17.179688 C 12.410156 -17.179688 11.53125 -16.683594 11.09375 -15.453125 L 7.871094 -6.46875 C 7.054688 -4.859375 5.796875 -3.484375 4.625 -3.484375 C 4.183594 -3.484375 3.949219 -3.777344 3.949219 -4.214844 C 3.949219 -4.449219 4.007812 -4.828125 4.097656 -5.121094 L 7.289062 -14.253906 C 7.40625 -14.574219 7.464844 -14.867188 7.464844 -15.160156 C 7.464844 -16.359375 6.410156 -17.179688 5.328125 -17.179688 C 4.507812 -17.179688 3.628906 -16.683594 3.21875 -15.511719 L -0.203125 -5.53125 C -0.378906 -5.003906 -0.46875 -4.476562 -0.46875 -3.980469 C -0.46875 -1.609375 1.464844 0 3.921875 0 C 5.679688 0 6.996094 -0.847656 8.078125 -2.019531 C 8.925781 -0.761719 10.507812 0 12.261719 0 C 15.042969 0 18.234375 -1.726562 20.3125 -7.816406 C 20.371094 -7.988281 20.398438 -8.164062 20.398438 -8.339844 C 20.398438 -9.277344 19.523438 -9.832031 18.613281 -9.832031 C 17.851562 -9.832031 17.0625 -9.425781 16.769531 -8.488281 Z M 16.769531 -8.488281 "/></g></g></g><g fill="#e86035" fill-opacity="1"><g transform="translate(234.684412, 245.423037)"><g><path d="M 14.839844 -8.488281 C 13.726562 -5.621094 12.234375 -3.484375 11.003906 -3.484375 C 10.59375 -3.484375 10.390625 -3.863281 10.390625 -4.273438 C 10.390625 -4.449219 10.417969 -4.683594 10.507812 -4.917969 L 12.234375 -9.71875 C 12.410156 -10.300781 12.527344 -10.828125 12.527344 -11.328125 C 12.527344 -14.105469 9.015625 -15.277344 7.375 -15.773438 C 7.464844 -16.007812 7.492188 -16.273438 7.492188 -16.507812 C 7.492188 -17.851562 6.292969 -18.996094 4.976562 -18.996094 C 3.25 -18.996094 2.222656 -17.472656 2.222656 -15.804688 C 2.222656 -15.074219 2.488281 -14.3125 2.957031 -13.726562 L 0.820312 -7.960938 C 0.761719 -7.726562 0.730469 -7.492188 0.730469 -7.316406 C 0.730469 -6.351562 1.492188 -5.855469 2.3125 -5.855469 C 3.132812 -5.855469 3.980469 -6.320312 4.332031 -7.257812 L 5.96875 -11.648438 C 6.789062 -11.386719 7.871094 -11.179688 7.871094 -10.183594 C 7.871094 -10.039062 7.84375 -9.863281 7.785156 -9.660156 L 6.496094 -6.085938 C 6.261719 -5.414062 6.144531 -4.800781 6.144531 -4.214844 C 6.144531 -1.667969 8.164062 0 10.59375 0 C 13.785156 0 16.683594 -2.839844 18.410156 -7.785156 C 18.46875 -7.960938 18.496094 -8.105469 18.496094 -8.253906 C 18.496094 -9.132812 17.53125 -9.71875 16.59375 -9.71875 C 15.832031 -9.71875 15.101562 -9.367188 14.839844 -8.488281 Z M 14.839844 -8.488281 "/></g></g></g><g fill="#e86035" fill-opacity="1"><g transform="translate(248.5276, 245.423037)"><g><path d="M 15.542969 -8.28125 C 14.839844 -6.554688 13.8125 -5.355469 12.46875 -4.566406 C 12.527344 -4.945312 12.585938 -5.296875 12.585938 -5.679688 C 12.585938 -7.375 11.679688 -8.984375 10.859375 -10.359375 C 10.273438 -11.355469 9.6875 -12.351562 9.570312 -13.257812 C 10.390625 -13.609375 11.035156 -14.546875 11.035156 -15.425781 C 11.035156 -16.683594 10.066406 -17.851562 8.605469 -17.851562 C 7.492188 -17.851562 6.378906 -17.296875 5.824219 -16.15625 C 4.683594 -13.929688 3.453125 -11.679688 2.28125 -9.484375 C 0.320312 -8.984375 -0.644531 -6.761719 -0.644531 -4.886719 C -0.644531 -2.019531 2.222656 0.203125 7.40625 0.203125 C 12.496094 0.203125 17.0625 -1.726562 19.113281 -7.640625 C 19.171875 -7.757812 19.171875 -7.902344 19.171875 -8.019531 C 19.171875 -8.867188 18.203125 -9.484375 17.269531 -9.484375 C 16.566406 -9.484375 15.863281 -9.132812 15.542969 -8.28125 Z M 6.261719 -9.074219 L 6.527344 -9.628906 C 7.40625 -8.574219 8.105469 -7.171875 8.105469 -5.796875 C 8.105469 -4.417969 7.375 -3.277344 5.824219 -3.21875 C 4.828125 -3.21875 3.949219 -3.660156 3.628906 -4.417969 C 3.863281 -4.359375 4.097656 -4.359375 4.300781 -4.359375 C 6 -4.359375 6.996094 -5.796875 6.996094 -7.230469 C 6.996094 -7.902344 6.761719 -8.574219 6.261719 -9.074219 Z M 6.261719 -9.074219 "/></g></g></g><g fill="#e86035" fill-opacity="1"><g transform="translate(263.131724, 245.423037)"><g><path d="M 14.808594 -8.253906 C 13.523438 -4.859375 10.449219 -3.484375 7.960938 -3.484375 C 5.824219 -3.484375 4.476562 -4.507812 4.476562 -5.855469 C 4.476562 -6.117188 4.507812 -6.378906 4.625 -6.671875 L 4.859375 -7.230469 C 5.707031 -6.703125 6.761719 -6.351562 7.929688 -6.351562 C 10.59375 -6.351562 12.9375 -8.019531 13.726562 -10.652344 C 13.871094 -11.210938 13.960938 -11.765625 13.960938 -12.261719 C 13.960938 -15.042969 11.765625 -17.179688 8.457031 -17.179688 C 5.855469 -17.179688 3.308594 -15.65625 2.28125 -12.730469 L 0.554688 -7.726562 C 0.320312 -7.023438 0.175781 -6.320312 0.175781 -5.648438 C 0.175781 -2.164062 3.453125 0 7.726562 0 C 11.792969 0 16.417969 -1.988281 18.351562 -7.582031 C 18.4375 -7.816406 18.46875 -8.019531 18.46875 -8.195312 C 18.46875 -9.101562 17.648438 -9.601562 16.769531 -9.601562 C 15.949219 -9.601562 15.074219 -9.160156 14.808594 -8.253906 Z M 8.371094 -13.726562 C 9.191406 -13.726562 9.71875 -13.054688 9.71875 -12.203125 C 9.71875 -11.96875 9.6875 -11.734375 9.601562 -11.503906 C 9.308594 -10.535156 8.429688 -10.183594 7.550781 -10.183594 C 6.996094 -10.183594 6.4375 -10.300781 6.027344 -10.535156 L 6.644531 -12.292969 C 6.964844 -13.199219 7.699219 -13.726562 8.371094 -13.726562 Z M 8.371094 -13.726562 "/></g></g></g><g fill="#e86035" fill-opacity="1"><g transform="translate(277.004179, 245.423037)"><g><path d="M 4.007812 -4.769531 L 10.15625 -22.566406 C 10.273438 -22.917969 10.332031 -23.269531 10.332031 -23.558594 C 10.332031 -24.671875 9.277344 -25.40625 8.398438 -25.40625 C 7.289062 -25.40625 6.554688 -24.789062 6.085938 -23.472656 L 0 -6.085938 C -0.234375 -5.414062 -0.351562 -4.800781 -0.351562 -4.183594 C -0.351562 -1.492188 1.875 0 4.449219 0 C 7.230469 0 10.710938 -1.726562 12.761719 -7.816406 C 12.820312 -8.019531 12.847656 -8.222656 12.847656 -8.398438 C 12.847656 -9.335938 12.027344 -10.007812 11.121094 -10.007812 C 10.390625 -10.007812 9.601562 -9.570312 9.191406 -8.488281 C 7.871094 -4.976562 6.175781 -3.484375 4.800781 -3.484375 C 4.214844 -3.484375 3.894531 -3.835938 3.894531 -4.273438 C 3.894531 -4.390625 3.949219 -4.59375 4.007812 -4.769531 Z M 4.007812 -4.769531 "/></g></g></g><g fill="#e86035" fill-opacity="1"><g transform="translate(285.169611, 245.423037)"><g><path d="M 2.867188 -13.695312 L -4.945312 8.3125 C -5.0625 8.632812 -5.121094 8.957031 -5.121094 9.25 C -5.121094 10.476562 -4.097656 11.269531 -3.015625 11.269531 C -2.105469 11.269531 -1.171875 10.710938 -0.703125 9.335938 L 7.375 -13.695312 L 9.511719 -13.726562 C 10.886719 -13.753906 11.53125 -14.75 11.53125 -15.601562 C 11.53125 -16.417969 10.917969 -17.179688 9.832031 -17.179688 L 8.632812 -17.179688 L 10.273438 -21.773438 C 10.507812 -22.476562 11.0625 -22.917969 11.5625 -22.917969 C 12.175781 -22.917969 12.410156 -22.566406 12.410156 -22.066406 C 12.410156 -21.890625 12.378906 -21.714844 12.320312 -21.511719 C 12.175781 -21.21875 12.117188 -20.957031 12.117188 -20.691406 C 12.117188 -19.667969 13.113281 -18.964844 14.136719 -18.964844 C 15.074219 -18.964844 16.039062 -19.550781 16.359375 -20.984375 C 16.449219 -21.394531 16.507812 -21.773438 16.507812 -22.15625 C 16.507812 -24.730469 14.515625 -26.664062 11.96875 -26.664062 C 9.484375 -26.664062 6.996094 -25.257812 5.910156 -22.214844 L 4.125 -17.179688 L 3.367188 -17.179688 C 1.550781 -17.179688 0.789062 -16.15625 0.789062 -15.21875 C 0.789062 -14.398438 1.347656 -13.695312 2.253906 -13.695312 Z M 2.867188 -13.695312 "/></g></g></g><g clip-path="url(#c8debde026)"><path fill="#dd9c39" d="M 205.039062 138.566406 C 205.039062 142.84375 198.242188 148.820312 197.476562 149.011719 C 197.253906 149.066406 197.253906 149.066406 195.347656 147.539062 C 192.441406 145.21875 189.265625 141.984375 190.207031 138.382812 C 190.554688 137.058594 191.769531 135.828125 193.226562 135.894531 C 194.546875 135.957031 196.625 137.21875 197.148438 138.882812 L 197.292969 139.335938 C 198.277344 138.308594 199.476562 137.09375 201.171875 136.636719 C 201.726562 136.488281 203.089844 136.433594 203.59375 136.542969 C 204.0625 136.644531 204.585938 137.042969 204.824219 137.480469 C 205.007812 137.828125 205.039062 137.972656 205.039062 138.566406 Z M 205.039062 138.566406 " fill-opacity="1" fill-rule="nonzero"/></g><g clip-path="url(#07f3cc2d24)"><path fill="#e86035" d="M 261.597656 158.425781 C 261.597656 162.703125 254.800781 168.679688 254.03125 168.871094 C 253.808594 168.925781 253.808594 168.925781 251.902344 167.402344 C 248.996094 165.082031 245.820312 161.84375 246.761719 158.242188 C 247.109375 156.917969 248.328125 155.6875 249.785156 155.753906 C 251.105469 155.820312 253.183594 157.078125 253.703125 158.742188 L 253.851562 159.195312 C 254.832031 158.167969 256.03125 156.953125 257.726562 156.496094 C 258.28125 156.347656 259.648438 156.296875 260.152344 156.402344 C 260.621094 156.503906 261.140625 156.902344 261.378906 157.34375 C 261.566406 157.6875 261.597656 157.832031 261.597656 158.425781 Z M 261.597656 158.425781 " fill-opacity="1" fill-rule="nonzero"/></g><g fill="#e86035" fill-opacity="1"><g transform="translate(128.469071, 273.264479)"><g><path d="M 2.863281 0.0976562 C 4.378906 0.0976562 5.402344 -0.960938 5.402344 -2.503906 C 5.402344 -3.992188 4.363281 -5.050781 2.863281 -5.050781 C 1.367188 -5.050781 0.335938 -4 0.335938 -2.503906 C 0.335938 -0.953125 1.375 0.0976562 2.863281 0.0976562 Z M 2.863281 -0.925781 C 2.097656 -0.925781 1.550781 -1.558594 1.550781 -2.503906 C 1.550781 -3.394531 2.097656 -4.027344 2.863281 -4.027344 C 3.648438 -4.027344 4.167969 -3.382812 4.167969 -2.503906 C 4.167969 -1.578125 3.640625 -0.925781 2.863281 -0.925781 Z M 2.863281 -0.925781 "/></g></g></g><g fill="#e86035" fill-opacity="1"><g transform="translate(135.783358, 273.264479)"><g><path d="M 1.726562 0 L 1.726562 -2.519531 C 1.726562 -3.171875 1.816406 -3.535156 2.019531 -3.773438 C 2.175781 -3.964844 2.421875 -4.070312 2.765625 -4.070312 C 3.050781 -4.070312 3.25 -4 3.394531 -3.851562 C 3.558594 -3.664062 3.640625 -3.367188 3.640625 -2.863281 L 3.640625 0 L 4.820312 0 L 4.820312 -2.847656 C 4.820312 -3.339844 4.820312 -3.789062 4.617188 -4.222656 C 4.398438 -4.679688 3.972656 -5.050781 3.074219 -5.050781 C 2.546875 -5.050781 2.125 -4.875 1.726562 -4.316406 L 1.726562 -4.945312 L 0.539062 -4.945312 L 0.539062 0 Z M 1.726562 0 "/></g></g></g><g fill="#e86035" fill-opacity="1"><g transform="translate(142.683468, 273.264479)"><g><path d="M 2.433594 0 L 2.433594 -0.988281 L 2.113281 -0.988281 C 1.824219 -0.988281 1.710938 -1.101562 1.710938 -1.4375 L 1.710938 -6.722656 L 0.519531 -6.722656 L 0.519531 -1.082031 C 0.519531 -0.316406 0.933594 0 1.664062 0 Z M 2.433594 0 "/></g></g></g><g fill="#e86035" fill-opacity="1"><g transform="translate(146.913413, 273.264479)"><g><path d="M 1.136719 -5.488281 C 1.535156 -5.488281 1.867188 -5.753906 1.867188 -6.167969 C 1.867188 -6.566406 1.535156 -6.847656 1.136719 -6.847656 C 0.730469 -6.847656 0.40625 -6.566406 0.40625 -6.167969 C 0.40625 -5.753906 0.730469 -5.488281 1.136719 -5.488281 Z M 1.726562 0 L 1.726562 -4.945312 L 0.539062 -4.945312 L 0.539062 0 Z M 1.726562 0 "/></g></g></g><g fill="#e86035" fill-opacity="1"><g transform="translate(150.755614, 273.264479)"><g><path d="M 1.726562 0 L 1.726562 -2.519531 C 1.726562 -3.171875 1.816406 -3.535156 2.019531 -3.773438 C 2.175781 -3.964844 2.421875 -4.070312 2.765625 -4.070312 C 3.050781 -4.070312 3.25 -4 3.394531 -3.851562 C 3.558594 -3.664062 3.640625 -3.367188 3.640625 -2.863281 L 3.640625 0 L 4.820312 0 L 4.820312 -2.847656 C 4.820312 -3.339844 4.820312 -3.789062 4.617188 -4.222656 C 4.398438 -4.679688 3.972656 -5.050781 3.074219 -5.050781 C 2.546875 -5.050781 2.125 -4.875 1.726562 -4.316406 L 1.726562 -4.945312 L 0.539062 -4.945312 L 0.539062 0 Z M 1.726562 0 "/></g></g></g><g fill="#e86035" fill-opacity="1"><g transform="translate(157.655726, 273.264479)"><g><path d="M 2.855469 0.0976562 C 4.175781 0.0976562 4.933594 -0.703125 5.226562 -1.664062 L 4.007812 -1.664062 C 3.851562 -1.261719 3.464844 -0.925781 2.898438 -0.925781 C 2.386719 -0.925781 1.984375 -1.191406 1.753906 -1.648438 C 1.664062 -1.796875 1.585938 -2.019531 1.570312 -2.230469 L 5.304688 -2.230469 L 5.304688 -2.484375 C 5.304688 -4.273438 4.097656 -5.050781 2.820312 -5.050781 C 1.128906 -5.050781 0.335938 -3.738281 0.335938 -2.441406 C 0.335938 -0.976562 1.339844 0.0976562 2.855469 0.0976562 Z M 1.621094 -3.121094 C 1.640625 -3.25 1.683594 -3.417969 1.816406 -3.578125 C 2.042969 -3.929688 2.414062 -4.105469 2.855469 -4.105469 C 3.285156 -4.105469 3.675781 -3.929688 3.902344 -3.578125 C 4.027344 -3.429688 4.070312 -3.25 4.089844 -3.121094 Z M 1.621094 -3.121094 "/></g></g></g><g fill="#e86035" fill-opacity="1"><g transform="translate(164.864268, 273.264479)"><g/></g></g><g fill="#e86035" fill-opacity="1"><g transform="translate(168.794591, 273.264479)"><g><path d="M 2.847656 0.0976562 C 4.027344 0.0976562 4.953125 -0.554688 5.183594 -1.664062 L 3.894531 -1.664062 C 3.773438 -1.171875 3.417969 -0.871094 2.847656 -0.871094 C 2.078125 -0.871094 1.550781 -1.515625 1.550781 -2.503906 C 1.550781 -3.453125 2.078125 -4.082031 2.847656 -4.082031 C 3.359375 -4.082031 3.71875 -3.824219 3.867188 -3.367188 L 5.164062 -3.367188 C 4.917969 -4.386719 4.035156 -5.050781 2.847656 -5.050781 C 1.347656 -5.050781 0.335938 -4 0.335938 -2.503906 C 0.335938 -0.953125 1.355469 0.0976562 2.847656 0.0976562 Z M 2.847656 0.0976562 "/></g></g></g><g fill="#e86035" fill-opacity="1"><g transform="translate(175.835702, 273.264479)"><g><path d="M 1.726562 0 L 1.726562 -2.292969 C 1.726562 -2.941406 1.859375 -3.339844 2.125 -3.605469 C 2.316406 -3.789062 2.601562 -3.902344 3.003906 -3.902344 L 3.277344 -3.902344 L 3.277344 -5.050781 L 3.136719 -5.050781 C 2.554688 -5.050781 2.105469 -4.875 1.726562 -4.351562 L 1.726562 -4.945312 L 0.539062 -4.945312 L 0.539062 0 Z M 1.726562 0 "/></g></g></g><g fill="#e86035" fill-opacity="1"><g transform="translate(180.849953, 273.264479)"><g><path d="M 1.964844 0.0976562 C 2.386719 0.0976562 2.777344 0.0273438 3.085938 -0.175781 C 3.269531 -0.289062 3.410156 -0.449219 3.535156 -0.667969 L 3.535156 0 L 4.722656 0 L 4.722656 -2.574219 C 4.722656 -3.261719 4.722656 -4.035156 4.140625 -4.546875 C 3.773438 -4.890625 3.214844 -5.050781 2.644531 -5.050781 C 1.664062 -5.050781 0.703125 -4.519531 0.527344 -3.367188 L 1.710938 -3.367188 C 1.796875 -3.832031 2.183594 -4.117188 2.636719 -4.117188 C 2.917969 -4.117188 3.144531 -4.035156 3.296875 -3.878906 C 3.445312 -3.71875 3.523438 -3.480469 3.535156 -3.179688 L 2.0625 -2.90625 C 1.648438 -2.828125 1.226562 -2.707031 0.90625 -2.484375 C 0.5625 -2.246094 0.34375 -1.886719 0.34375 -1.355469 C 0.34375 -0.414062 1.03125 0.0976562 1.964844 0.0976562 Z M 2.257812 -0.835938 C 1.839844 -0.835938 1.535156 -1.03125 1.535156 -1.402344 C 1.535156 -1.570312 1.59375 -1.691406 1.691406 -1.789062 C 1.832031 -1.921875 2.035156 -2.007812 2.378906 -2.070312 L 3.558594 -2.308594 C 3.542969 -1.65625 3.410156 -1.234375 2.890625 -0.976562 C 2.695312 -0.882812 2.476562 -0.835938 2.257812 -0.835938 Z M 2.257812 -0.835938 "/></g></g></g><g fill="#e86035" fill-opacity="1"><g transform="translate(187.626692, 273.264479)"><g><path d="M 2.148438 0 L 2.148438 -3.992188 L 3.058594 -3.992188 L 3.058594 -4.945312 L 2.148438 -4.945312 L 2.148438 -5.277344 C 2.148438 -5.648438 2.34375 -5.78125 2.601562 -5.78125 L 3.058594 -5.78125 L 3.058594 -6.722656 L 2.316406 -6.722656 C 1.425781 -6.722656 0.953125 -6.265625 0.953125 -5.445312 L 0.953125 -4.945312 L 0.203125 -4.945312 L 0.203125 -3.992188 L 0.953125 -3.992188 L 0.953125 0 Z M 2.148438 0 "/></g></g></g><g fill="#e86035" fill-opacity="1"><g transform="translate(192.438259, 273.264479)"><g><path d="M 3.066406 0 L 3.066406 -0.988281 L 2.527344 -0.988281 C 2.160156 -0.988281 2.125 -1.191406 2.125 -1.445312 L 2.125 -3.992188 L 3.074219 -3.992188 L 3.074219 -4.945312 L 2.125 -4.945312 L 2.125 -6.722656 L 0.933594 -6.722656 L 0.933594 -4.945312 L 0.203125 -4.945312 L 0.203125 -3.992188 L 0.933594 -3.992188 L 0.933594 -1.082031 C 0.933594 -0.316406 1.355469 0 2.089844 0 Z M 3.066406 0 "/></g></g></g><g fill="#e86035" fill-opacity="1"><g transform="translate(197.382017, 273.264479)"><g/></g></g><g fill="#e86035" fill-opacity="1"><g transform="translate(201.31234, 273.264479)"><g><path d="M 2.847656 0.0976562 C 4.027344 0.0976562 4.953125 -0.554688 5.183594 -1.664062 L 3.894531 -1.664062 C 3.773438 -1.171875 3.417969 -0.871094 2.847656 -0.871094 C 2.078125 -0.871094 1.550781 -1.515625 1.550781 -2.503906 C 1.550781 -3.453125 2.078125 -4.082031 2.847656 -4.082031 C 3.359375 -4.082031 3.71875 -3.824219 3.867188 -3.367188 L 5.164062 -3.367188 C 4.917969 -4.386719 4.035156 -5.050781 2.847656 -5.050781 C 1.347656 -5.050781 0.335938 -4 0.335938 -2.503906 C 0.335938 -0.953125 1.355469 0.0976562 2.847656 0.0976562 Z M 2.847656 0.0976562 "/></g></g></g><g fill="#e86035" fill-opacity="1"><g transform="translate(208.35345, 273.264479)"><g><path d="M 2.863281 0.0976562 C 4.378906 0.0976562 5.402344 -0.960938 5.402344 -2.503906 C 5.402344 -3.992188 4.363281 -5.050781 2.863281 -5.050781 C 1.367188 -5.050781 0.335938 -4 0.335938 -2.503906 C 0.335938 -0.953125 1.375 0.0976562 2.863281 0.0976562 Z M 2.863281 -0.925781 C 2.097656 -0.925781 1.550781 -1.558594 1.550781 -2.503906 C 1.550781 -3.394531 2.097656 -4.027344 2.863281 -4.027344 C 3.648438 -4.027344 4.167969 -3.382812 4.167969 -2.503906 C 4.167969 -1.578125 3.640625 -0.925781 2.863281 -0.925781 Z M 2.863281 -0.925781 "/></g></g></g><g fill="#e86035" fill-opacity="1"><g transform="translate(215.667739, 273.264479)"><g><path d="M 2.265625 0.0976562 C 2.847656 0.0976562 3.242188 -0.113281 3.605469 -0.625 L 3.605469 0 L 4.792969 0 L 4.792969 -4.945312 L 3.605469 -4.945312 L 3.605469 -2.433594 C 3.605469 -1.78125 3.523438 -1.417969 3.320312 -1.179688 C 3.15625 -0.976562 2.90625 -0.882812 2.5625 -0.882812 C 2.28125 -0.882812 2.078125 -0.953125 1.9375 -1.101562 C 1.769531 -1.285156 1.699219 -1.578125 1.699219 -2.089844 L 1.699219 -4.945312 L 0.511719 -4.945312 L 0.511719 -2.097656 C 0.511719 -1.382812 0.5625 -1.046875 0.722656 -0.722656 C 0.988281 -0.175781 1.5 0.0976562 2.265625 0.0976562 Z M 2.265625 0.0976562 "/></g></g></g><g fill="#e86035" fill-opacity="1"><g transform="translate(222.576652, 273.264479)"><g><path d="M 1.726562 0 L 1.726562 -2.292969 C 1.726562 -2.941406 1.859375 -3.339844 2.125 -3.605469 C 2.316406 -3.789062 2.601562 -3.902344 3.003906 -3.902344 L 3.277344 -3.902344 L 3.277344 -5.050781 L 3.136719 -5.050781 C 2.554688 -5.050781 2.105469 -4.875 1.726562 -4.351562 L 1.726562 -4.945312 L 0.539062 -4.945312 L 0.539062 0 Z M 1.726562 0 "/></g></g></g><g fill="#e86035" fill-opacity="1"><g transform="translate(227.590904, 273.264479)"><g><path d="M 2.679688 0.0976562 C 3.957031 0.0976562 4.714844 -0.539062 4.714844 -1.5 C 4.714844 -2.636719 3.65625 -2.828125 2.785156 -2.996094 C 2.175781 -3.109375 1.648438 -3.207031 1.648438 -3.613281 C 1.648438 -3.921875 1.9375 -4.117188 2.414062 -4.117188 C 2.898438 -4.117188 3.320312 -3.902344 3.464844 -3.367188 L 4.582031 -3.367188 C 4.40625 -4.441406 3.578125 -5.050781 2.421875 -5.050781 C 1.402344 -5.050781 0.511719 -4.601562 0.511719 -3.570312 C 0.511719 -2.46875 1.515625 -2.257812 2.371094 -2.089844 C 2.996094 -1.964844 3.542969 -1.851562 3.542969 -1.410156 C 3.542969 -1.039062 3.171875 -0.835938 2.671875 -0.835938 C 2.0625 -0.835938 1.628906 -1.128906 1.480469 -1.664062 L 0.308594 -1.664062 C 0.476562 -0.421875 1.550781 0.0976562 2.679688 0.0976562 Z M 2.679688 0.0976562 "/></g></g></g><g fill="#e86035" fill-opacity="1"><g transform="translate(234.235452, 273.264479)"><g><path d="M 2.855469 0.0976562 C 4.175781 0.0976562 4.933594 -0.703125 5.226562 -1.664062 L 4.007812 -1.664062 C 3.851562 -1.261719 3.464844 -0.925781 2.898438 -0.925781 C 2.386719 -0.925781 1.984375 -1.191406 1.753906 -1.648438 C 1.664062 -1.796875 1.585938 -2.019531 1.570312 -2.230469 L 5.304688 -2.230469 L 5.304688 -2.484375 C 5.304688 -4.273438 4.097656 -5.050781 2.820312 -5.050781 C 1.128906 -5.050781 0.335938 -3.738281 0.335938 -2.441406 C 0.335938 -0.976562 1.339844 0.0976562 2.855469 0.0976562 Z M 1.621094 -3.121094 C 1.640625 -3.25 1.683594 -3.417969 1.816406 -3.578125 C 2.042969 -3.929688 2.414062 -4.105469 2.855469 -4.105469 C 3.285156 -4.105469 3.675781 -3.929688 3.902344 -3.578125 C 4.027344 -3.429688 4.070312 -3.25 4.089844 -3.121094 Z M 1.621094 -3.121094 "/></g></g></g><g fill="#e86035" fill-opacity="1"><g transform="translate(241.443994, 273.264479)"><g><path d="M 2.679688 0.0976562 C 3.957031 0.0976562 4.714844 -0.539062 4.714844 -1.5 C 4.714844 -2.636719 3.65625 -2.828125 2.785156 -2.996094 C 2.175781 -3.109375 1.648438 -3.207031 1.648438 -3.613281 C 1.648438 -3.921875 1.9375 -4.117188 2.414062 -4.117188 C 2.898438 -4.117188 3.320312 -3.902344 3.464844 -3.367188 L 4.582031 -3.367188 C 4.40625 -4.441406 3.578125 -5.050781 2.421875 -5.050781 C 1.402344 -5.050781 0.511719 -4.601562 0.511719 -3.570312 C 0.511719 -2.46875 1.515625 -2.257812 2.371094 -2.089844 C 2.996094 -1.964844 3.542969 -1.851562 3.542969 -1.410156 C 3.542969 -1.039062 3.171875 -0.835938 2.671875 -0.835938 C 2.0625 -0.835938 1.628906 -1.128906 1.480469 -1.664062 L 0.308594 -1.664062 C 0.476562 -0.421875 1.550781 0.0976562 2.679688 0.0976562 Z M 2.679688 0.0976562 "/></g></g></g></svg>